<svg t="1729595659906" class="icon" viewBox="0 0 1025 1024" version="1.1" xmlns="http://www.w3.org/2000/svg" p-id="3389" width="200" height="200"><path d="M571.2 811.2c-38.4 0-68.8-25.6-81.6-59.2l-145.6-443.2-160 369.6c-12.8 25.6-43.2 46.4-76.8 46.4h-64c-25.6 0-43.2-17.6-43.2-43.2S17.6 640 43.2 640h64l166.4-379.2c12.8-30.4 43.2-51.2 76.8-46.4 33.6 0 64 20.8 76.8 56l145.6 456 59.2-161.6c12.8-30.4 38.4-46.4 68.8-51.2s59.2 12.8 76.8 38.4l68.8 132.8h136c25.6 0 43.2 17.6 43.2 43.2s-17.6 43.2-43.2 43.2h-132.8c-30.4 0-59.2-17.6-76.8-46.4l-64-120-56 153.6c-12.8 32-43.2 52.8-81.6 52.8zM353.6 291.2z" p-id="3390" fill="#1296db"></path></svg>